<?xml version="1.0" encoding="UTF-8" standalone="no"?>
<!-- Created with Inkscape (http://www.inkscape.org/) -->

<svg
   xmlns:ns1="http://www.iki.fi/pav/software/textext/"
   xmlns:osb="http://www.openswatchbook.org/uri/2009/osb"
   xmlns:dc="http://purl.org/dc/elements/1.1/"
   xmlns:cc="http://creativecommons.org/ns#"
   xmlns:rdf="http://www.w3.org/1999/02/22-rdf-syntax-ns#"
   xmlns:svg="http://www.w3.org/2000/svg"
   xmlns="http://www.w3.org/2000/svg"
   xmlns:sodipodi="http://sodipodi.sourceforge.net/DTD/sodipodi-0.dtd"
   xmlns:inkscape="http://www.inkscape.org/namespaces/inkscape"
   width="109.11631mm"
   height="119.89501mm"
   viewBox="0 0 109.11631 119.89501"
   version="1.1"
   id="svg8"
   inkscape:version="0.92.3 (2405546, 2018-03-11)"
   sodipodi:docname="fav-icon-2.svg"
   inkscape:export-filename="/home/arthur/Dropbox/Thèse/Drawings/favicon.png"
   inkscape:export-xdpi="96"
   inkscape:export-ydpi="96">
  <sodipodi:namedview
     id="base"
     pagecolor="#ffffff"
     bordercolor="#666666"
     borderopacity="1.0"
     inkscape:pageopacity="0.0"
     inkscape:pageshadow="2"
     inkscape:zoom="0.7"
     inkscape:cx="-290.14437"
     inkscape:cy="221.98969"
     inkscape:document-units="mm"
     inkscape:current-layer="layer1"
     showgrid="false"
     inkscape:window-width="1853"
     inkscape:window-height="1016"
     inkscape:window-x="67"
     inkscape:window-y="27"
     inkscape:window-maximized="1" />
  <defs
     id="defs2">
    <linearGradient
       id="linearGradient840"
       osb:paint="gradient">
      <stop
         style="stop-color:#17ffff;stop-opacity:1;"
         offset="0"
         id="stop836" />
      <stop
         style="stop-color:#17ffff;stop-opacity:0;"
         offset="1"
         id="stop838" />
    </linearGradient>
  </defs>
  <metadata
     id="metadata5">
    <rdf:RDF>
      <cc:Work
         rdf:about="">
        <dc:format>image/svg+xml</dc:format>
        <dc:type
           rdf:resource="http://purl.org/dc/dcmitype/StillImage" />
        <dc:title></dc:title>
      </cc:Work>
    </rdf:RDF>
  </metadata>
  <g
     id="layer1"
     inkscape:groupmode="layer"
     inkscape:label="Layer 1"
     transform="translate(-137.54509,-171.94349)">
    <g
       id="g823"
       ns1:jacobian_sqrt="0.352778"
       ns1:alignment="middle center"
       ns1:scale="1.00000002843"
       ns1:preamble="/home/arthur/.config/inkscape/extensions/textext/default_packages.tex"
       ns1:text="$\\varphi$"
       ns1:pdfconverter="pdf2svg"
       ns1:texconverter="pdflatex"
       ns1:version="0.11.0"
       transform="matrix(18.695785,0,0,17.781554,-2650.5523,-2144.5748)"
       style="fill:#000000;fill-opacity:1;stroke:#000000;stroke-width:0.16453737;stroke-miterlimit:4;stroke-dasharray:none;stroke-opacity:0.95945949"
       inkscape:export-xdpi="96"
       inkscape:export-ydpi="96">
      <g
         id="surface1"
         style="fill:#000000;fill-opacity:1;stroke:#000000;stroke-width:0.16453737;stroke-miterlimit:4;stroke-dasharray:none;stroke-opacity:0.95945949">
        <g
           id="g820"
           style="fill:#000000;fill-opacity:1;stroke:#000000;stroke-width:0.16453737;stroke-miterlimit:4;stroke-dasharray:none;stroke-opacity:0.95945949">
          <path
             id="path818"
             transform="translate(148.712,134.765)"
             d="M 1.6875,1.6875 C 1.65625,1.828125 1.640625,1.84375 1.640625,1.890625 c 0,0.21875 0.1875,0.28125 0.296875,0.28125 0.046875,0 0.265625,-0.03125 0.359375,-0.265625 C 2.328125,1.828125 2.375,1.5 2.65625,0.09375 c 0.078125,0 0.15625,0.015625 0.328125,0.015625 1.65625,0 3.1875,-1.5625 3.1875,-3.140625 0,-0.78125 -0.390625,-1.375 -1.140625,-1.375 -1.4375,0 -2.046875,1.9375 -2.640625,3.875 C 1.3125,-0.734375 0.75,-1.28125 0.75,-2 c 0,-0.28125 0.234375,-1.375 0.828125,-2.0625 0.09375,-0.09375 0.09375,-0.109375 0.09375,-0.140625 0,-0.03125 -0.03125,-0.09375 -0.125,-0.09375 -0.28125,0 -1.046875,1.453125 -1.046875,2.40625 0,0.9375 0.65625,1.65625 1.71875,1.90625 z m 1.390625,-2.15625 c -0.09375,0 -0.109375,0 -0.1875,-0.015625 -0.125,0 -0.125,0 -0.125,-0.03125 0,-0.015625 0.171875,-0.9375 0.1875,-1.078125 0.3125,-1.28125 1.09375,-2.234375 1.984375,-2.234375 0.6875,0 0.953125,0.53125 0.953125,1.015625 0,1.125 -1.28125,2.34375 -2.8125,2.34375 z m 0,0"
             style="fill:#000000;fill-opacity:1;stroke:#000000;stroke-width:0.16453737;stroke-miterlimit:4;stroke-dasharray:none;stroke-opacity:0.95945949"
             inkscape:connector-curvature="0" />
        </g>
      </g>
    </g>
  </g>
</svg>
